<svg width="26" height="26" viewBox="0 0 26 26" fill="none" xmlns="http://www.w3.org/2000/svg">
<g clip-path="url(#clip0_81_1482)">
<path fill-rule="evenodd" clip-rule="evenodd" d="M20.1006 13.8143C20.068 10.5226 22.7853 8.94307 22.9067 8.86486C21.3794 6.63077 18.9999 6.32369 18.152 6.28916C16.1272 6.08473 14.2016 7.48199 13.1728 7.48199C12.1469 7.48199 10.5616 6.31983 8.88268 6.35058C6.67593 6.3832 4.64143 7.63409 3.5038 9.61053C1.21113 13.5883 2.91738 19.4839 5.152 22.7094C6.24359 24.289 7.54538 26.0634 9.255 26C10.9008 25.9352 11.5236 24.9338 13.5145 24.9338C15.5048 24.9338 16.0638 26 17.8061 25.966C19.5776 25.9333 20.6999 24.3557 21.7843 22.7708C23.0391 20.9378 23.5534 19.1653 23.5846 19.0742C23.5453 19.0564 20.1303 17.7484 20.0958 13.8157L20.1006 13.8143H20.1006ZM16.8282 4.15196C17.7351 3.05171 18.3478 1.52441 18.1804 0C16.8738 0.0532594 15.2894 0.870878 14.3513 1.9697C13.5092 2.94519 12.7736 4.49983 12.9704 5.99304C14.4295 6.10679 15.9194 5.25172 16.8267 4.15387L16.8282 4.15196Z" fill="black"/>
</g>
<defs>
<clipPath id="clip0_81_1482">
<rect width="26" height="26" fill="white"/>
</clipPath>
</defs>
</svg>
