<svg width="73" height="73" viewBox="0 0 73 73" fill="none" xmlns="http://www.w3.org/2000/svg">
<g clip-path="url(#clip0_81_1304)">
<path d="M28.896 9.125H44.1043C45.3144 9.125 46.4749 9.60569 47.3305 10.4613C48.1861 11.317 48.6668 12.4774 48.6668 13.6875C48.6668 16.511 47.5452 19.2188 45.5487 21.2152C43.5523 23.2117 40.8444 24.3333 38.021 24.3333H34.9793C32.1559 24.3333 29.4481 23.2117 27.4516 21.2152C25.4551 19.2188 24.3335 16.511 24.3335 13.6875C24.3335 12.4774 24.8142 11.317 25.6698 10.4613C26.5255 9.60569 27.6859 9.125 28.896 9.125Z" stroke="white" stroke-width="3" stroke-linecap="round" stroke-linejoin="round"/>
<path d="M12.1665 51.708V48.6663C12.1665 42.2127 14.7302 36.0235 19.2936 31.4601C23.857 26.8967 30.0462 24.333 36.4998 24.333C42.9534 24.333 49.1427 26.8967 53.7061 31.4601C58.2695 36.0235 60.8332 42.2127 60.8332 48.6663V51.708C60.8332 54.9348 59.5513 58.0294 57.2696 60.3111C54.9879 62.5928 51.8933 63.8747 48.6665 63.8747H24.3332C21.1064 63.8747 18.0117 62.5928 15.73 60.3111C13.4483 58.0294 12.1665 54.9348 12.1665 51.708Z" stroke="white" stroke-width="3" stroke-linecap="round" stroke-linejoin="round"/>
</g>
<defs>
<clipPath id="clip0_81_1304">
<rect width="73" height="73" fill="white"/>
</clipPath>
</defs>
</svg>
