<svg width="24" height="26" viewBox="0 0 24 26" fill="none" xmlns="http://www.w3.org/2000/svg">
<g id="google-play-store-icon" clip-path="url(#clip0_81_1465)">
<g id="Layer_x0020_1">
<path id="Vector" d="M10.2954 12.0762L0.0722656 23.8767C0.444111 25.1244 1.62557 25.9999 2.94609 25.9999C3.52085 25.9999 4.02403 25.8582 4.4551 25.5749L17.0299 18.4926L10.2954 12.0762Z" fill="#EA4335"/>
<path id="Vector_2" d="M22.3473 10.4142L16.9576 7.36719L11.2095 12.9645L17.0297 18.4913L22.4189 15.5154C23.3532 15.0192 24 14.0274 24 12.9645C23.9279 11.9016 23.2816 10.9098 22.3473 10.4142Z" fill="#FBBC04"/>
<path id="Vector_3" d="M10.2707 13.8867L16.9583 7.36865L4.5272 0.425056C4.09613 0.141685 3.52085 0 2.94609 0C1.58128 0 0.359648 0.921208 0.0722656 2.12579L10.2707 13.8867Z" fill="#34A853"/>
<path id="Vector_4" d="M0.071588 2.125C0 2.33727 0 2.62115 0 2.90401V23.0975C0 23.3803 0 23.5931 0.072103 23.8765L11.2105 12.9652L0.071588 2.125Z" fill="#4285F4"/>
</g>
</g>
<defs>
<clipPath id="clip0_81_1465">
<rect width="24" height="26" fill="white"/>
</clipPath>
</defs>
</svg>
