<svg width="78" height="86" viewBox="0 0 78 86" fill="none" xmlns="http://www.w3.org/2000/svg">
<mask id="path-1-outside-1_214_491" maskUnits="userSpaceOnUse" x="-4.17157" y="-2.8637" width="84.9049" height="92.6831" fill="black">
<rect fill="white" x="-4.17157" y="-2.8637" width="84.9049" height="92.6831"/>
<path d="M31.191 54.8245L37.7689 79.3735C37.0138 79.8139 35.7774 80.3833 34.0596 81.0817C32.3419 81.7801 30.6314 82.3575 28.9281 82.8139C27.2249 83.2703 25.6671 83.5289 24.2547 83.5899C22.9363 83.705 21.7434 83.5484 20.6762 83.1201C19.6089 82.6917 18.6944 81.9446 17.9326 80.8788C17.1708 79.813 16.5319 78.3174 16.016 76.3919L0.30053 17.7409C1.07544 17.3745 2.32178 16.8422 4.03956 16.1438C5.73749 15.3713 7.40106 14.7668 9.03025 14.3303C10.7335 13.8739 12.2543 13.6252 13.5926 13.584C14.9851 13.449 16.2149 13.5957 17.2822 14.0241C18.3494 14.4525 19.2639 15.1996 20.0258 16.2654C20.7876 17.3312 21.4264 18.8268 21.9423 20.7522L26.6748 38.4142L42.6661 5.67474C47.7018 4.32543 51.5514 4.32577 54.2149 5.67574C56.9326 6.93181 58.6387 8.8558 59.3332 11.4477C59.8491 13.3731 59.8539 15.3164 59.3476 17.2776C58.8413 19.2388 57.8021 21.5809 56.2299 24.304L46.0653 41.9097C48.4722 43.4871 50.9731 45.1188 53.5678 46.8047C56.2366 48.4707 58.8215 50.1195 61.3223 51.7512C63.8774 53.289 66.3015 54.7824 68.5947 56.2316C70.962 57.661 73.0006 58.9006 74.7106 59.9504C75.1472 61.5796 75.2379 63.1031 74.9828 64.5207C74.7277 65.9384 74.2008 67.2304 73.4021 68.3969C72.6775 69.5435 71.7453 70.5076 70.6054 71.2893C69.4656 72.0709 68.1921 72.6503 66.7851 73.0273C63.7489 73.8408 61.0696 73.765 58.7474 72.7999C56.4052 71.7606 54.0677 70.4424 51.7348 68.8451L31.191 54.8245Z"/>
</mask>
<g filter="url(#filter0_i_214_491)">
<path d="M31.191 54.8245L37.7689 79.3735C37.0138 79.8139 35.7774 80.3833 34.0596 81.0817C32.3419 81.7801 30.6314 82.3575 28.9281 82.8139C27.2249 83.2703 25.6671 83.5289 24.2547 83.5899C22.9363 83.705 21.7434 83.5484 20.6762 83.1201C19.6089 82.6917 18.6944 81.9446 17.9326 80.8788C17.1708 79.813 16.5319 78.3174 16.016 76.3919L0.30053 17.7409C1.07544 17.3745 2.32178 16.8422 4.03956 16.1438C5.73749 15.3713 7.40106 14.7668 9.03025 14.3303C10.7335 13.8739 12.2543 13.6252 13.5926 13.584C14.9851 13.449 16.2149 13.5957 17.2822 14.0241C18.3494 14.4525 19.2639 15.1996 20.0258 16.2654C20.7876 17.3312 21.4264 18.8268 21.9423 20.7522L26.6748 38.4142L42.6661 5.67474C47.7018 4.32543 51.5514 4.32577 54.2149 5.67574C56.9326 6.93181 58.6387 8.8558 59.3332 11.4477C59.8491 13.3731 59.8539 15.3164 59.3476 17.2776C58.8413 19.2388 57.8021 21.5809 56.2299 24.304L46.0653 41.9097C48.4722 43.4871 50.9731 45.1188 53.5678 46.8047C56.2366 48.4707 58.8215 50.1195 61.3223 51.7512C63.8774 53.289 66.3015 54.7824 68.5947 56.2316C70.962 57.661 73.0006 58.9006 74.7106 59.9504C75.1472 61.5796 75.2379 63.1031 74.9828 64.5207C74.7277 65.9384 74.2008 67.2304 73.4021 68.3969C72.6775 69.5435 71.7453 70.5076 70.6054 71.2893C69.4656 72.0709 68.1921 72.6503 66.7851 73.0273C63.7489 73.8408 61.0696 73.765 58.7474 72.7999C56.4052 71.7606 54.0677 70.4424 51.7348 68.8451L31.191 54.8245Z" fill="url(#paint0_linear_214_491)"/>
</g>
<path d="M31.191 54.8245L32.6131 52.7408L26.9933 48.9054L28.7543 55.4774L31.191 54.8245ZM37.7689 79.3735L39.04 81.5526L40.7044 80.5817L40.2057 78.7205L37.7689 79.3735ZM34.0596 81.0817L35.0098 83.4187L34.0596 81.0817ZM24.2547 83.5899L24.1459 81.0695L24.0905 81.0719L24.0352 81.0767L24.2547 83.5899ZM20.6762 83.1201L19.7365 85.4612L19.7365 85.4612L20.6762 83.1201ZM17.9326 80.8788L15.8803 82.3457L15.8803 82.3457L17.9326 80.8788ZM0.30053 17.7409L-0.77777 15.4603L-2.68114 16.3602L-2.13622 18.3938L0.30053 17.7409ZM4.03956 16.1438L4.98968 18.4807L5.03736 18.4613L5.0842 18.44L4.03956 16.1438ZM13.5926 13.584L13.67 16.1056L13.7532 16.103L13.836 16.095L13.5926 13.584ZM17.2822 14.0241L16.3425 16.3653L16.3425 16.3653L17.2822 14.0241ZM20.0258 16.2654L17.9734 17.7323L17.9734 17.7323L20.0258 16.2654ZM26.6748 38.4142L24.2381 39.0671L25.9829 45.5788L28.9416 39.5214L26.6748 38.4142ZM42.6661 5.67475L42.0132 3.23799L40.9036 3.53532L40.3994 4.56756L42.6661 5.67475ZM54.2149 5.67574L53.0744 7.92593L53.1151 7.94655L53.1565 7.9657L54.2149 5.67574ZM59.3476 17.2776L56.905 16.647L56.905 16.647L59.3476 17.2776ZM56.2299 24.304L58.4147 25.5653L58.4147 25.5653L56.2299 24.304ZM46.0653 41.9097L43.8805 40.6483L42.6886 42.7129L44.6825 44.0196L46.0653 41.9097ZM53.5678 46.8047L52.1934 48.9201L52.2125 48.9325L52.2319 48.9446L53.5678 46.8047ZM61.3223 51.7512L59.9438 53.864L59.9822 53.889L60.0214 53.9126L61.3223 51.7512ZM68.5947 56.2316L67.2471 58.3642L67.2688 58.3779L67.2908 58.3912L68.5947 56.2316ZM74.7106 59.9504L77.1474 59.2975L76.8872 58.3265L76.0305 57.8006L74.7106 59.9504ZM74.9828 64.5207L72.4999 64.0739L72.4999 64.0739L74.9828 64.5207ZM73.4021 68.3969L71.3206 66.9717L71.2944 67.01L71.2696 67.0492L73.4021 68.3969ZM58.7474 72.7999L57.7242 75.1058L57.7515 75.1179L57.7792 75.1294L58.7474 72.7999ZM51.7348 68.8451L53.16 66.7635L53.1569 66.7614L51.7348 68.8451ZM28.7543 55.4774L35.3322 80.0264L40.2057 78.7205L33.6278 54.1715L28.7543 55.4774ZM36.4978 77.1944C35.9069 77.5391 34.8108 78.0531 33.1095 78.7448L35.0098 83.4187C36.7441 82.7135 38.1208 82.0887 39.04 81.5526L36.4978 77.1944ZM33.1095 78.7448C31.4837 79.4058 29.8724 79.9492 28.2752 80.3771L29.581 85.2506C31.3904 84.7658 33.2 84.1544 35.0098 83.4187L33.1095 78.7448ZM28.2752 80.3771C26.7081 80.797 25.3358 81.0182 24.1459 81.0695L24.3635 86.1102C25.9983 86.0397 27.7417 85.7435 29.581 85.2506L28.2752 80.3771ZM24.0352 81.0767C23.0516 81.1627 22.2637 81.0389 21.6159 80.7789L19.7365 85.4612C21.2231 86.0579 22.8209 86.2474 24.4742 86.103L24.0352 81.0767ZM21.6159 80.7789C21.0551 80.5538 20.5069 80.142 19.9849 79.4118L15.8803 82.3457C16.882 83.7472 18.1627 84.8295 19.7365 85.4612L21.6159 80.7789ZM19.985 79.4118C19.4658 78.6856 18.927 77.5088 18.4528 75.739L13.5793 77.0449C14.1369 79.1259 14.8757 80.9404 15.8803 82.3457L19.985 79.4118ZM18.4528 75.739L2.73728 17.088L-2.13622 18.3938L13.5793 77.0449L18.4528 75.739ZM1.37883 20.0216C2.0862 19.6871 3.27748 19.1768 4.98968 18.4807L3.08944 13.8068C1.36609 14.5075 0.0646808 15.062 -0.77777 15.4603L1.37883 20.0216ZM5.0842 18.44C6.66877 17.7192 8.20143 17.1641 9.68318 16.767L8.37733 11.8935C6.60068 12.3696 4.80622 13.0235 2.99492 13.8475L5.0842 18.44ZM9.68318 16.767C11.254 16.3461 12.5762 16.1392 13.67 16.1056L13.5151 11.0625C11.9323 11.1111 10.213 11.4017 8.37733 11.8935L9.68318 16.767ZM13.836 16.095C14.9123 15.9906 15.7231 16.1166 16.3425 16.3653L18.2219 11.6829C16.7068 11.0748 15.0578 10.9074 13.3491 11.0731L13.836 16.095ZM16.3425 16.3653C16.9032 16.5903 17.4515 17.0021 17.9734 17.7323L22.0781 14.7984C21.0764 13.397 19.7956 12.3146 18.2219 11.6829L16.3425 16.3653ZM17.9734 17.7323C18.4925 18.4586 19.0314 19.6354 19.5056 21.4051L24.3791 20.0993C23.8215 18.0182 23.0826 16.2038 22.0781 14.7984L17.9734 17.7323ZM19.5056 21.4051L24.2381 39.0671L29.1116 37.7612L24.3791 20.0993L19.5056 21.4051ZM28.9416 39.5214L44.9329 6.78193L40.3994 4.56756L24.4081 37.307L28.9416 39.5214ZM43.3191 8.1115C48.1627 6.81364 51.2525 7.00248 53.0744 7.92593L55.3554 3.42555C51.8504 1.64905 47.2409 1.83723 42.0132 3.23799L43.3191 8.1115ZM53.1565 7.9657C55.2834 8.94867 56.4197 10.3213 56.8965 12.1006L61.77 10.7948C60.8577 7.39031 58.5819 4.91495 55.2733 3.38578L53.1565 7.9657ZM56.8965 12.1006C57.2979 13.5988 57.3044 15.0999 56.905 16.647L61.7902 17.9082C62.4035 15.533 62.4004 13.1474 61.77 10.7948L56.8965 12.1006ZM56.905 16.647C56.478 18.3008 55.5587 20.4211 54.0452 23.0426L58.4147 25.5653C60.0454 22.7407 61.2045 20.1768 61.7902 17.9082L56.905 16.647ZM54.0452 23.0426L43.8805 40.6483L48.25 43.171L58.4147 25.5653L54.0452 23.0426ZM44.6825 44.0196C47.0924 45.599 49.596 47.2325 52.1934 48.9201L54.9423 44.6892C52.3501 43.005 49.852 41.3752 47.4481 39.7997L44.6825 44.0196ZM52.2319 48.9446C54.8872 50.6022 57.4578 52.242 59.9438 53.864L62.7008 49.6384C60.1851 47.9971 57.586 46.3392 54.9037 44.6647L52.2319 48.9446ZM60.0214 53.9126C62.5623 55.4419 64.9708 56.9257 67.2471 58.3642L69.9424 54.099C67.6322 52.6392 65.1924 51.1361 62.6232 49.5898L60.0214 53.9126ZM67.2908 58.3912C69.6545 59.8184 71.6876 61.0546 73.3907 62.1003L76.0305 57.8006C74.3137 56.7465 72.2694 55.5035 69.8987 54.072L67.2908 58.3912ZM72.2739 60.6034C72.6306 61.9347 72.679 63.0791 72.4999 64.0739L77.4656 64.9675C77.7968 63.127 77.6637 61.2245 77.1474 59.2975L72.2739 60.6034ZM72.4999 64.0739C72.3067 65.1476 71.914 66.105 71.3206 66.9717L75.4837 69.8221C76.4876 68.3558 77.1486 66.7292 77.4656 64.9675L72.4999 64.0739ZM71.2696 67.0492C70.7316 67.9005 70.0415 68.6171 69.1787 69.2088L72.0322 73.3698C73.4491 72.3981 74.6235 71.1865 75.5347 69.7446L71.2696 67.0492ZM69.1787 69.2088C68.2872 69.8201 67.278 70.2835 66.1322 70.5905L67.438 75.464C69.1063 75.017 70.6439 74.3218 72.0322 73.3698L69.1787 69.2088ZM66.1322 70.5905C63.4966 71.2967 61.4071 71.1734 59.7155 70.4703L57.7792 75.1294C60.7322 76.3567 64.0011 76.3849 67.438 75.464L66.1322 70.5905ZM59.7705 70.494C57.5825 69.5231 55.3789 68.2827 53.16 66.7635L50.3096 70.9266C52.7566 72.602 55.2279 73.9981 57.7242 75.1058L59.7705 70.494ZM53.1569 66.7614L32.6131 52.7408L29.769 56.9082L50.3128 70.9288L53.1569 66.7614Z" fill="white" mask="url(#path-1-outside-1_214_491)"/>
<defs>
<filter id="filter0_i_214_491" x="0.0326514" y="0.966171" width="77.4163" height="88.7628" filterUnits="userSpaceOnUse" color-interpolation-filters="sRGB">
<feFlood flood-opacity="0" result="BackgroundImageFix"/>
<feBlend mode="normal" in="SourceGraphic" in2="BackgroundImageFix" result="shape"/>
<feColorMatrix in="SourceAlpha" type="matrix" values="0 0 0 0 0 0 0 0 0 0 0 0 0 0 0 0 0 0 127 0" result="hardAlpha"/>
<feOffset dy="3.78407"/>
<feGaussianBlur stdDeviation="6.30678"/>
<feComposite in2="hardAlpha" operator="arithmetic" k2="-1" k3="1"/>
<feColorMatrix type="matrix" values="0 0 0 0 0 0 0 0 0 0 0 0 0 0 0 0 0 0 1 0"/>
<feBlend mode="normal" in2="shape" result="effect1_innerShadow_214_491"/>
</filter>
<linearGradient id="paint0_linear_214_491" x1="27.2904" y1="10.1881" x2="45.4077" y2="77.8029" gradientUnits="userSpaceOnUse">
<stop stop-color="#3072FF"/>
<stop offset="1" stop-color="#002677"/>
</linearGradient>
</defs>
</svg>
