<svg width="28" height="29" viewBox="0 0 28 29" fill="none" xmlns="http://www.w3.org/2000/svg">
<g id="Frame" clip-path="url(#clip0_214_439)">
<path id="Vector" d="M7 5.38159V24.0483C6.99994 24.2558 7.05527 24.4597 7.16028 24.6388C7.26529 24.8178 7.41617 24.9656 7.59736 25.0669C7.77855 25.1682 7.98349 25.2193 8.19103 25.215C8.39857 25.2107 8.6012 25.151 8.778 25.0423L23.9447 15.7089C24.1145 15.6045 24.2548 15.4584 24.3521 15.2844C24.4494 15.1104 24.5005 14.9143 24.5005 14.7149C24.5005 14.5156 24.4494 14.3195 24.3521 14.1455C24.2548 13.9715 24.1145 13.8253 23.9447 13.7209L8.778 4.3876C8.6012 4.27882 8.39857 4.21919 8.19103 4.21485C7.98349 4.21052 7.77855 4.26164 7.59736 4.36293C7.41617 4.46423 7.26529 4.61204 7.16028 4.7911C7.05527 4.97017 6.99994 5.17401 7 5.38159Z" fill="white"/>
</g>
<defs>
<clipPath id="clip0_214_439">
<rect width="28" height="28" fill="white" transform="translate(0 0.7146)"/>
</clipPath>
</defs>
</svg>
