<svg width="34" height="30" viewBox="0 0 34 30" fill="none" xmlns="http://www.w3.org/2000/svg">
<g id="icomoon-free:quotes-left" clip-path="url(#clip0_124_86)">
<path id="Vector" d="M7.4715 13.0616C8.9425 13.0616 10.3805 13.4447 11.6036 14.1623C12.8266 14.8799 13.7799 15.8999 14.3429 17.0933C14.9058 18.2867 15.0531 19.5999 14.7661 20.8667C14.4791 22.1336 13.7708 23.2973 12.7306 24.2107C11.6905 25.1241 10.3652 25.7461 8.92248 25.9981C7.47975 26.2501 5.98432 26.1208 4.62529 25.6264C3.26627 25.1321 2.10469 24.295 1.28744 23.221C0.470202 22.147 0.034 20.8843 0.034 19.5926L0 18.6596C0 15.1954 1.56718 11.873 4.35679 9.42341C7.14639 6.97382 10.9299 5.59766 14.875 5.59766V9.32964C13.4791 9.32635 12.0963 9.56608 10.8065 10.035C9.51681 10.5039 8.34572 11.1927 7.361 12.0615C6.97828 12.3969 6.62521 12.7575 6.30487 13.14C6.68525 13.0878 7.07413 13.0598 7.46938 13.0598L7.4715 13.0616ZM26.5965 13.0616C28.0675 13.0616 29.5055 13.4447 30.7286 14.1623C31.9516 14.8799 32.9049 15.8999 33.4679 17.0933C34.0308 18.2867 34.1781 19.5999 33.8911 20.8667C33.6041 22.1336 32.8958 23.2973 31.8556 24.2107C30.8155 25.1241 29.4902 25.7461 28.0475 25.9981C26.6048 26.2501 25.1093 26.1208 23.7503 25.6264C22.3913 25.1321 21.2297 24.295 20.4124 23.221C19.5952 22.147 19.159 20.8843 19.159 19.5926L19.125 18.6596C19.125 15.1954 20.6922 11.873 23.4818 9.42341C26.2714 6.97382 30.0549 5.59766 34 5.59766V9.32964C32.6041 9.32635 31.2213 9.56608 29.9315 10.035C28.6418 10.5039 27.4707 11.1927 26.486 12.0615C26.1033 12.3969 25.7502 12.7575 25.4299 13.14C25.8102 13.0878 26.1991 13.0598 26.5965 13.0598V13.0616Z" fill="url(#paint0_linear_124_86)"/>
</g>
<defs>
<linearGradient id="paint0_linear_124_86" x1="34" y1="25.8748" x2="2.57064" y2="3.80314" gradientUnits="userSpaceOnUse">
<stop stop-color="#EFBC23"/>
<stop offset="1" stop-color="#FFDC74"/>
</linearGradient>
<clipPath id="clip0_124_86">
<rect width="34" height="29.8559" fill="white"/>
</clipPath>
</defs>
</svg>
