<svg width="34" height="30" viewBox="0 0 34 30" fill="none" xmlns="http://www.w3.org/2000/svg">
<g id="icomoon-free:quotes-right" clip-path="url(#clip0_124_105)">
<path id="Vector" d="M26.5625 18.75C25.0915 18.75 23.6535 18.3651 22.4305 17.644C21.2074 16.9229 20.2541 15.898 19.6912 14.6989C19.1282 13.4997 18.9809 12.1802 19.2679 10.9072C19.5549 9.63422 20.2632 8.4649 21.3034 7.54712C22.3436 6.62933 23.6688 6.00432 25.1115 5.7511C26.5543 5.49788 28.0497 5.62784 29.4087 6.12454C30.7677 6.62124 31.9293 7.46238 32.7466 8.54157C33.5638 9.62077 34 10.8896 34 12.1875L34.034 13.125C34.034 14.8486 33.6493 16.5553 32.9017 18.1477C32.1542 19.7401 31.0585 21.187 29.6772 22.4058C28.2959 23.6245 26.6561 24.5913 24.8514 25.2509C23.0467 25.9105 21.1124 26.25 19.159 26.25V22.5C20.5549 22.5033 21.9377 22.2624 23.2275 21.7913C24.5172 21.3201 25.6883 20.628 26.673 19.755C27.0557 19.4179 27.4088 19.0556 27.7291 18.6713C27.3432 18.7248 26.9532 18.7517 26.5625 18.7519V18.75ZM7.4375 18.75C5.96651 18.75 4.52854 18.3651 3.30545 17.644C2.08236 16.9229 1.12908 15.898 0.566149 14.6989C0.00322261 13.4997 -0.144065 12.1802 0.142913 10.9072C0.42989 9.63422 1.13824 8.4649 2.1784 7.54712C3.21855 6.62933 4.54379 6.00432 5.98652 5.7511C7.42925 5.49788 8.92469 5.62784 10.2837 6.12454C11.6427 6.62124 12.8043 7.46238 13.6216 8.54157C14.4388 9.62077 14.875 10.8896 14.875 12.1875L14.909 13.125C14.909 16.606 13.3418 19.9444 10.5522 22.4058C7.76261 24.8672 3.9791 26.25 0.0340033 26.25V22.5C1.42991 22.5033 2.81272 22.2624 4.10246 21.7913C5.3922 21.3201 6.56329 20.628 7.548 19.755C7.93073 19.4179 8.28379 19.0556 8.60413 18.6713C8.21821 18.7248 7.82816 18.7517 7.4375 18.7519V18.75Z" fill="url(#paint0_linear_124_105)"/>
</g>
<defs>
<linearGradient id="paint0_linear_124_105" x1="34" y1="26" x2="2.47084" y2="3.96462" gradientUnits="userSpaceOnUse">
<stop stop-color="#EFBC23"/>
<stop offset="1" stop-color="#FFDC74"/>
</linearGradient>
<clipPath id="clip0_124_105">
<rect width="34" height="30" fill="white"/>
</clipPath>
</defs>
</svg>
